Plot

Two young couples head into the New Guinea wilderness in an effort to find
Michael Rockefeller, the heir to the Rockefeller fortune who disappeared in 1961.


Cast

D. Kevin Epps ... Fijian Warrior Shaman
Sandy Gardiner ... Mandi
Callard Harris ... Colby
John Leonetti ... Helicopter Pilot
Clifton Morris ... Fijian Warrior
Rich Morris ... Christian missionary
Jeran Pascascio ... Fijian Warrior
Nick Richey ... Mikey
Del Roy ... Old man
Veronica Sywak ... Bijou
Darren Thomas ... Fijian Warrior
 
http://www.imdb.com/title/tt1090360/

General
Complete name : Welcome To The Jungle 2007 DVDRip Xvid BigPerm LKRG\WttJ_LKRG.avi
Format : AVI
Format/Info : Audio Video Interleave
File size : 1 018 MiB
Duration : 1h 22mn
Overall bit rate : 1 729 Kbps

Video
ID : 0
Format : MPEG-4 Visual
Format profile : Advanced Simple@L5
Format settings, BVOP : Yes
Format settings, QPel : No
Format settings, GMC : No warppoints
Format settings, Matrix : Default (H.263)
Codec ID : XVID
Codec ID/Hint : XviD
Duration : 1h 22mn
Bit rate : 1 276 Kbps
Width : 704 pixels
Height : 396 pixels
Display aspect ratio : 16:9
Frame rate : 23.976 fps
Color space : YUV
Chroma subsampling : 4:2:0
Bit depth : 8 bits
Scan type : Progressive
Compression mode : Lossy
Bits/(Pixel*Frame) : 0.191
Stream size : 751 MiB (74%)
Writing library : XviD 1.2.1 (UTC 2008-12-04)

Audio
ID : 1
Format : AC-3
Format/Info : Audio Coding 3
Mode extension : CM (complete main)
Codec ID : 2000
Duration : 1h 22mn
Bit rate mode : Constant
Bit rate : 448 Kbps
Channel(s) : 6 channels
Channel positions : Front: L C R, Side: L R, LFE
Sampling rate : 48.0 KHz
Bit depth : 16 bits
Compression mode : Lossy
Video delay : 42ms
Stream size : 264 MiB (26%)
Alignment : Split accross interleaves
Interleave, duration : 500 ms (11.99 video frames)
Interleave, preload duration : 500 ms
 
http://www.grinshare.com/img/4L5XAS.png
 
http://www.grinshare.com/img/KUL34S.png
 
http://www.grinshare.com/img/A42L66.png
 
http://www.grinshare.com/img/CVTKY5.png